HIERARCHY
ROOT Hips
{
  OFFSET -69.4423 88.0299 51.6846
  CHANNELS 6 Xposition Yposition Zposition Zrotation Xrotation Yrotation
  JOINT Spine
  {
    OFFSET 12.0259 -0.162853 1.93176e-005
    CHANNELS 3 Zrotation Xrotation Yrotation
    JOINT Spine1
    {
      OFFSET 15.3169 -0.0121909 0
      CHANNELS 3 Zrotation Xrotation Yrotation
      JOINT Spine2
      {
        OFFSET 15.3176 -0.0121922 0
        CHANNELS 3 Zrotation Xrotation Yrotation
        JOINT Neck
        {
          OFFSET 19.9142 1.56236 0
          CHANNELS 3 Zrotation Xrotation Yrotation
          JOINT Head
          {
            OFFSET 6.92646 0 0
            CHANNELS 3 Zrotation Xrotation Yrotation
            End Site
            {
              OFFSET 20.7666 0 0
            }
          }
          JOINT LeftShoulder
          {
            OFFSET -4.94072 -1.14703 8.14416
            CHANNELS 3 Zrotation Xrotation Yrotation
            JOINT LeftArm
            {
              OFFSET 14.108 0 -2.74767e-005
              CHANNELS 3 Zrotation Xrotation Yrotation
              JOINT LeftForeArm
              {
                OFFSET 28.5802 -0.0783412 -0.0284884
                CHANNELS 3 Zrotation Xrotation Yrotation
                JOINT LeftHand
                {
                  OFFSET 27.092 0 0
                  CHANNELS 3 Zrotation Xrotation Yrotation
                  End Site
                  {
                    OFFSET 9.55928 -0.186424 0.145352
                  }
                }
              }
            }
          }
          JOINT RightShoulder
          {
            OFFSET -7.15748 -1.33027 -6.24935
            CHANNELS 3 Zrotation Xrotation Yrotation
            JOINT RightArm
            {
              OFFSET 14.108 0 1.82997e-005
              CHANNELS 3 Zrotation Xrotation Yrotation
              JOINT RightForeArm
              {
                OFFSET 28.5802 -0.0707221 2.30684e-005
                CHANNELS 3 Zrotation Xrotation Yrotation
                JOINT RightHand
                {
                  OFFSET 27.092 0 -1.30073e-005
                  CHANNELS 3 Zrotation Xrotation Yrotation
                  End Site
                  {
                    OFFSET 9.55929 -0.186417 -0.145354
                  }
                }
              }
            }
          }
        }
      }
    }
  }
  JOINT LeftUpLeg
  {
    OFFSET 0.00499725 -0.534999 8.837
    CHANNELS 3 Zrotation Xrotation Yrotation
    JOINT LeftLeg
    {
      OFFSET 39.9035 -0.00124594 0.000252775
      CHANNELS 3 Zrotation Xrotation Yrotation
      JOINT LeftFoot
      {
        OFFSET 39.6689 0 0
        CHANNELS 3 Zrotation Xrotation Yrotation
        JOINT LeftToe
        {
          OFFSET 10.1624 13.6296 0
          CHANNELS 3 Zrotation Xrotation Yrotation
          End Site
          {
            OFFSET 8.38147 0 0
          }
        }
      }
    }
  }
  JOINT RightUpLeg
  {
    OFFSET 0.00499725 -0.535 -8.837
    CHANNELS 3 Zrotation Xrotation Yrotation
    JOINT RightLeg
    {
      OFFSET 39.9036 -0.000268477 0.000106433
      CHANNELS 3 Zrotation Xrotation Yrotation
      JOINT RightFoot
      {
        OFFSET 39.6689 1.17892e-005 0
        CHANNELS 3 Zrotation Xrotation Yrotation
        JOINT RightToe
        {
          OFFSET 10.1624 13.6296 0
          CHANNELS 3 Zrotation Xrotation Yrotation
          End Site
          {
            OFFSET 8.38147 0 0
          }
        }
      }
    }
  }
}
MOTION
Frames:	8
Frame Time:	0.0333333
-66.84 88.757 80.5828 89.7385 2.19137 0.318704 1.39506 0.873731 0.583094 2.78165 1.76185 1.14508 2.78165 1.76186 1.14507 -15.9664 0.285308 -11.504 51.0893 0.375756 8.99879 -165.746 -1.62052 -94.8219 -20.0392 2.98446 86.3358 -23.8746 2.61757 -15.4237 8.89208 -83.9228 11.2839 -165.666 -3.79105 73.4054 -16.0362 -1.07046 -83.4718 -23.6655 -2.89555 14.6362 2.25948 81.6859 -2.13036 -14.7665 -3.6091 -178.799 -39.6007 0.893802 -0.654236 6.17189 2.91826 0.5566 90 1.31198e-014 1.27222e-014 -13.5832 -3.45163 -175.563 -30.893 -0.617726 0.119321 1.29137 0.427309 -0.421589 90 3.97569e-015 3.97569e-016 
-66.1494 89.1319 80.4428 89.3225 2.4848 0.418586 1.37332 0.915663 0.618696 2.73728 1.84628 1.21567 2.73727 1.84629 1.21566 -15.6744 0.308316 -11.7267 51.667 0.426019 9.06152 -166.055 -1.64235 -95.0432 -19.6369 3.67914 86.7913 -23.6161 2.57408 -15.2649 9.01167 -83.5705 11.4177 -165.949 -3.72993 73.1707 -16.0862 -1.04488 -83.0969 -23.6436 -2.8913 14.6224 2.43603 82.2642 -2.30452 -14.5405 -1.90124 -178.539 -45.5258 0.859538 -0.39253 3.85443 5.065 0.49666 90 -9.74045e-015 -8.74653e-015 -12.6131 -3.41457 -175.641 -28.9861 -0.626933 0.152918 0.227105 0.330383 -0.331502 90 9.54166e-015 7.15625e-015 
-65.4235 89.4873 80.2724 89.0902 2.7392 0.385078 1.29037 0.997233 0.623441 2.57037 2.00864 1.2243 2.57036 2.00863 1.22428 -15.4322 0.24643 -11.5412 52.2399 0.238832 8.96824 -166.314 -1.64006 -94.8449 -19.251 4.44433 86.9863 -23.2523 2.50716 -15.0442 8.35495 -83.1047 10.7577 -166.178 -3.63944 73.3524 -13.9398 -0.466511 -83.4292 -23.6609 -2.89452 14.6166 1.91731 80.8263 -1.77103 -13.9746 0.259968 -177.967 -50.4105 0.832149 -0.174878 -2.03684 7.08894 0.787176 90 -9.44227e-016 -2.38542e-015 -11.8686 -3.85292 -175.751 -27.1092 -0.630088 0.187076 -0.843989 -0.551465 -0.390175 90 2.38542e-015 1.59028e-015 
-64.5915 89.6828 80.2415 88.9582 3.05897 0.485521 1.18914 0.970859 0.635194 2.36796 1.95514 1.25052 2.36794 1.95512 1.25051 -15.2915 0.314334 -11.3799 52.377 0.15819 8.59288 -166.449 -1.53914 -94.7048 -18.3985 5.12951 87.3435 -22.8597 2.43864 -14.8134 8.09754 -82.8123 10.4618 -166.305 -3.43788 73.5098 -15.5501 -1.20016 -83.297 -24.4976 -3.08916 15.0754 2.54423 82.568 -2.43182 -12.8369 1.9138 -177.624 -53.8644 0.808228 -0.00449368 -8.76065 8.74058 1.51436 90 3.37934e-014 3.4191e-014 -11.3706 -4.32697 -175.932 -25.2615 -0.630018 0.234221 -2.0141 -0.655261 -0.318415 90 4.77083e-015 3.57812e-015 
-63.6603 89.8572 80.1912 88.9799 3.64728 0.578602 1.07652 0.923759 0.693939 2.14217 1.86084 1.37082 2.14218 1.86084 1.3708 -15.2836 0.456123 -11.6321 52.4763 0.321382 8.43029 -166.453 -1.49399 -94.9622 -17.289 5.49116 87.8744 -22.4038 2.3672 -14.5656 7.16986 -82.3288 9.58811 -166.305 -3.31067 73.2335 -15.4119 -1.3894 -83.0236 -25.024 -3.20999 15.3464 2.34841 82.2722 -2.23496 -11.052 3.53593 -177.314 -55.5258 0.822264 0.109175 -10.8721 10.8129 2.20323 90 -1.35174e-014 -1.35174e-014 -11.3969 -5.0861 -176.312 -24.1117 -0.62574 0.26022 -3.04912 -1.76596 -0.504614 90 -2.06736e-014 -2.0276e-014 
-62.5996 89.9758 80.2172 89.0033 4.10998 0.771522 0.982523 0.861232 0.694117 1.95486 1.73465 1.37376 1.95486 1.73464 1.37374 -15.4494 0.613772 -11.4991 52.7513 0.474161 8.13024 -166.261 -1.35649 -94.8281 -16.59 5.7851 88.0274 -21.6899 2.25225 -14.1749 6.89111 -81.9309 9.34869 -166.111 -3.11479 73.3256 -15.3596 -1.32431 -82.9509 -25.2025 -3.25654 15.4441 2.53012 82.6675 -2.41123 -8.68479 4.75348 -177.466 -55.3534 0.869258 0.179503 -11.6668 12.8537 2.81949 90 -1.35174e-014 -1.27222e-014 -11.7657 -5.52836 -176.78 -23.3472 -0.612005 0.285335 -3.84733 -2.32957 -0.612312 90 1.03368e-014 1.11319e-014 
-61.4141 89.9384 80.3371 89.0246 4.57781 1.36376 0.916989 0.809296 0.613594 1.82554 1.62877 1.21451 1.82553 1.62872 1.2145 -15.3733 0.640356 -11.3858 52.4389 0.36662 7.82692 -166.316 -1.29656 -94.6777 -16.0525 5.8723 88.0896 -20.8085 2.10764 -13.6993 6.28284 -80.8629 8.6666 -166.178 -3.00717 73.426 -15.843 -1.53483 -82.772 -25.6399 -3.36249 15.6772 2.87374 83.6447 -2.76892 -5.68507 5.85349 -178.241 -52.7746 0.929072 0.194821 -14.4077 13.5885 3.52167 90 2.62396e-014 2.46493e-014 -12.8505 -5.15507 -177.489 -23.7596 -0.586163 0.305645 -4.3683 -1.90168 -0.497756 90 -1.59028e-015 -5.56597e-015 
-60.0361 89.8346 80.4833 89.0871 5.19393 1.90073 0.879217 0.704153 0.547497 1.75187 1.41701 1.0844 1.75187 1.41705 1.08439 -15.5513 0.731623 -11.4602 52.5289 0.616842 7.89931 -166.113 -1.26355 -94.7131 -16.0441 5.65164 88.0564 -20.099 1.9966 -13.3242 5.79786 -79.9292 8.19524 -165.993 -2.9735 73.3257 -15.2741 -1.12171 -82.6007 -25.5821 -3.34677 15.6383 2.61261 83.0584 -2.49877 -2.39599 6.48764 -179.184 -48.1727 0.994137 0.151356 -18.1486 13.4851 4.22709 90 1.27222e-014 1.03368e-014 -14.4517 -5.19237 -178.347 -24.8566 -0.557997 0.316198 -4.82599 -1.8231 -0.475927 90 -2.38542e-014 -2.22639e-014 
